<svg
 xmlns="http://www.w3.org/2000/svg"
 xmlns:xlink="http://www.w3.org/1999/xlink"
 width="1703px" height="1175px">
<path fill-rule="evenodd"  fill="rgb(212, 2, 66)"
 d="M1214.198,160.326 C1218.307,164.433 1218.307,171.093 1214.198,175.200 L1047.709,341.634 C1043.600,345.741 1036.938,345.741 1032.829,341.634 C1028.720,337.526 1028.720,330.867 1032.829,326.759 L1199.319,160.326 C1203.428,156.218 1210.090,156.218 1214.198,160.326 Z"/>
<path fill-rule="evenodd"  fill="rgb(212, 2, 66)"
 d="M1687.198,523.326 C1691.307,527.433 1691.307,534.093 1687.198,538.200 L1520.709,704.634 C1516.600,708.741 1509.938,708.741 1505.829,704.634 C1501.721,700.526 1501.721,693.867 1505.829,689.759 L1672.319,523.326 C1676.428,519.218 1683.090,519.218 1687.198,523.326 Z"/>
<path fill-rule="evenodd"  fill="rgb(212, 2, 66)"
 d="M1694.453,111.430 C1698.561,115.538 1698.561,122.197 1694.453,126.305 L1527.963,292.738 C1523.854,296.846 1517.192,296.846 1513.084,292.738 C1508.975,288.631 1508.975,281.971 1513.084,277.864 L1679.573,111.430 C1683.682,107.323 1690.344,107.323 1694.453,111.430 Z"/>
<path fill-rule="evenodd"  fill="rgb(212, 2, 66)"
 d="M354.102,599.207 C358.211,603.314 358.211,609.974 354.102,614.081 L187.612,780.515 C183.504,784.622 176.842,784.622 172.733,780.515 C168.624,776.407 168.624,769.747 172.733,765.640 L339.223,599.207 C343.331,595.099 349.993,595.099 354.102,599.207 Z"/>
<path fill-rule="evenodd"  fill="rgb(212, 2, 66)"
 d="M1699.647,212.608 C1703.756,216.716 1703.756,223.376 1699.647,227.483 L1533.157,393.916 C1529.049,398.024 1522.387,398.024 1518.278,393.916 C1514.169,389.809 1514.169,383.149 1518.278,379.042 L1684.768,212.608 C1688.877,208.501 1695.538,208.501 1699.647,212.608 Z"/>
<path fill-rule="evenodd"  fill="rgb(212, 2, 66)"
 d="M483.857,318.451 C487.966,322.559 487.966,329.218 483.857,333.326 L317.368,499.759 C313.259,503.867 306.597,503.867 302.488,499.759 C298.379,495.652 298.379,488.992 302.488,484.885 L468.978,318.451 C473.087,314.344 479.749,314.344 483.857,318.451 Z"/>
<path fill-rule="evenodd"  fill="rgb(212, 2, 66)"
 d="M323.300,337.407 C327.409,341.515 327.409,348.174 323.300,352.282 L156.811,518.715 C152.702,522.822 146.040,522.822 141.931,518.715 C137.823,514.607 137.823,507.948 141.931,503.841 L308.421,337.407 C312.530,333.300 319.192,333.300 323.300,337.407 Z"/>
<path fill-rule="evenodd"  opacity="0.2" fill="rgb(212, 2, 66)"
 d="M1073.300,3.407 C1077.409,7.515 1077.409,14.174 1073.300,18.282 L800.811,290.715 C796.702,294.822 790.040,294.822 785.931,290.715 C781.823,286.607 781.823,279.948 785.931,275.841 L1058.421,3.407 C1062.530,-0.700 1069.192,-0.700 1073.300,3.407 Z"/>
<path fill-rule="evenodd"  opacity="0.2" fill="rgb(212, 2, 66)"
 d="M291.300,884.408 C295.409,888.515 295.409,895.175 291.300,899.282 L18.811,1171.715 C14.702,1175.822 8.040,1175.822 3.931,1171.715 C-0.177,1167.607 -0.177,1160.948 3.931,1156.841 L276.421,884.408 C280.530,880.300 287.192,880.300 291.300,884.408 Z"/>
<path fill-rule="evenodd"  opacity="0.2" fill="rgb(212, 2, 66)"
 d="M1373.301,294.408 C1377.409,298.515 1377.409,305.174 1373.301,309.282 L1342.811,339.715 C1338.702,343.822 1332.040,343.822 1327.931,339.715 C1323.823,335.607 1323.823,328.948 1327.931,324.841 L1358.421,294.408 C1362.530,290.300 1369.192,290.300 1373.301,294.408 Z"/>
<path fill-rule="evenodd"  opacity="0.2" fill="rgb(212, 2, 66)"
 d="M1492.301,549.407 C1496.410,553.515 1496.410,560.174 1492.301,564.282 L1286.811,769.715 C1282.702,773.823 1276.040,773.823 1271.931,769.715 C1267.823,765.608 1267.823,758.948 1271.931,754.841 L1477.421,549.407 C1481.530,545.300 1488.192,545.300 1492.301,549.407 Z"/>
<path fill-rule="evenodd"  opacity="0.2" fill="rgb(212, 2, 66)"
 d="M460.300,211.408 C464.409,215.515 464.409,222.174 460.300,226.282 L373.811,312.715 C369.702,316.823 363.040,316.823 358.931,312.715 C354.823,308.608 354.823,301.948 358.931,297.841 L445.421,211.408 C449.530,207.300 456.192,207.300 460.300,211.408 Z"/>
</svg>