<svg
 xmlns="http://www.w3.org/2000/svg"
 xmlns:xlink="http://www.w3.org/1999/xlink"
 width="1676px" height="1213px">
<defs>
<filter id="Filter_0">
    <feFlood flood-color="rgb(4, 226, 223)" flood-opacity="1" result="floodOut" />
    <feComposite operator="atop" in="floodOut" in2="SourceGraphic" result="compOut" />
    <feBlend mode="normal" in="compOut" in2="SourceGraphic" />
</filter>

</defs>
<g filter="url(#Filter_0)">
<path fill-rule="evenodd"  fill="rgb(12, 76, 84)"
 d="M1114.198,160.326 C1118.307,164.433 1118.307,171.093 1114.198,175.200 L947.709,341.634 C943.600,345.741 936.938,345.741 932.829,341.634 C928.720,337.526 928.720,330.866 932.829,326.759 L1099.319,160.326 C1103.428,156.218 1110.090,156.218 1114.198,160.326 Z"/>
<path fill-rule="evenodd"  fill="rgb(12, 76, 84)"
 d="M1626.198,461.325 C1630.308,465.433 1630.308,472.093 1626.198,476.200 L1459.709,642.634 C1455.600,646.741 1448.938,646.741 1444.829,642.634 C1440.721,638.526 1440.721,631.867 1444.829,627.759 L1611.319,461.325 C1615.428,457.218 1622.090,457.218 1626.198,461.325 Z"/>
<path fill-rule="evenodd"  fill="rgb(12, 76, 84)"
 d="M1594.453,111.430 C1598.562,115.538 1598.562,122.197 1594.453,126.305 L1427.963,292.738 C1423.854,296.846 1417.192,296.846 1413.083,292.738 C1408.975,288.631 1408.975,281.971 1413.083,277.864 L1579.573,111.430 C1583.682,107.323 1590.344,107.323 1594.453,111.430 Z"/>
<path fill-rule="evenodd"  fill="rgb(12, 76, 84)"
 d="M294.102,718.206 C298.211,722.314 298.211,728.974 294.102,733.081 L29.612,997.514 C25.504,1001.622 18.842,1001.622 14.733,997.514 C10.624,993.407 10.624,986.747 14.733,982.640 L279.222,718.206 C283.331,714.099 289.993,714.099 294.102,718.206 Z"/>
<path fill-rule="evenodd"  fill="rgb(12, 76, 84)"
 d="M1599.647,212.609 C1603.756,216.716 1603.756,223.376 1599.647,227.483 L1433.158,393.916 C1429.049,398.024 1422.387,398.024 1418.278,393.916 C1414.169,389.809 1414.169,383.149 1418.278,379.041 L1584.768,212.609 C1588.876,208.501 1595.538,208.501 1599.647,212.609 Z"/>
<path fill-rule="evenodd"  fill="rgb(12, 76, 84)"
 d="M383.857,318.451 C387.966,322.559 387.966,329.218 383.857,333.326 L217.368,499.759 C213.259,503.867 206.597,503.867 202.488,499.759 C198.379,495.652 198.379,488.992 202.488,484.885 L368.978,318.451 C373.087,314.344 379.749,314.344 383.857,318.451 Z"/>
<path fill-rule="evenodd"  fill="rgb(12, 76, 84)"
 d="M223.300,337.408 C227.409,341.515 227.409,348.174 223.300,352.282 L56.811,518.715 C52.702,522.823 46.040,522.823 41.932,518.715 C37.823,514.607 37.823,507.948 41.932,503.841 L208.421,337.408 C212.530,333.300 219.192,333.300 223.300,337.408 Z"/>
<path fill-rule="evenodd"  opacity="0.15" fill="rgb(12, 76, 84)"
 d="M1672.301,642.407 C1676.409,646.515 1676.409,653.174 1672.301,657.282 L1399.811,929.715 C1395.702,933.822 1389.041,933.822 1384.932,929.715 C1380.823,925.607 1380.823,918.948 1384.932,914.841 L1657.421,642.407 C1661.530,638.300 1668.192,638.300 1672.301,642.407 Z"/>
<path fill-rule="evenodd"  opacity="0.051" fill="rgb(12, 76, 84)"
 d="M1342.301,972.407 C1346.410,976.515 1346.410,983.174 1342.301,987.282 L1252.811,1076.715 C1248.702,1080.822 1242.041,1080.822 1237.931,1076.715 C1233.823,1072.607 1233.823,1065.948 1237.931,1061.841 L1327.421,972.407 C1331.530,968.300 1338.192,968.300 1342.301,972.407 Z"/>
<path fill-rule="evenodd"  opacity="0.051" fill="rgb(12, 76, 84)"
 d="M1517.301,403.407 C1521.410,407.515 1521.410,414.174 1517.301,418.282 L1427.811,507.715 C1423.702,511.822 1417.041,511.822 1412.931,507.715 C1408.823,503.607 1408.823,496.948 1412.931,492.841 L1502.421,403.407 C1506.530,399.300 1513.192,399.300 1517.301,403.407 Z"/>
<path fill-rule="evenodd"  opacity="0.051" fill="rgb(12, 76, 84)"
 d="M230.301,868.407 C234.410,872.515 234.410,879.174 230.301,883.282 L18.811,1094.715 C14.702,1098.823 8.041,1098.823 3.931,1094.715 C-0.177,1090.608 -0.177,1083.948 3.931,1079.841 L215.421,868.407 C219.530,864.300 226.192,864.300 230.301,868.407 Z"/>
<path fill-rule="evenodd"  opacity="0.051" fill="rgb(12, 76, 84)"
 d="M461.301,1052.407 C465.410,1056.515 465.410,1063.174 461.301,1067.282 L414.811,1113.715 C410.702,1117.823 404.041,1117.823 399.931,1113.715 C395.823,1109.608 395.823,1102.948 399.931,1098.841 L446.421,1052.407 C450.530,1048.300 457.192,1048.300 461.301,1052.407 Z"/>
<path fill-rule="evenodd"  opacity="0.051" fill="rgb(12, 76, 84)"
 d="M594.301,337.407 C598.410,341.515 598.410,348.174 594.301,352.282 L431.811,514.715 C427.702,518.823 421.041,518.823 416.932,514.715 C412.823,510.607 412.823,503.948 416.932,499.841 L579.421,337.407 C583.530,333.300 590.192,333.300 594.301,337.407 Z"/>
<path fill-rule="evenodd"  opacity="0.15" fill="rgb(12, 76, 84)"
 d="M973.301,3.407 C977.409,7.515 977.409,14.174 973.301,18.282 L700.811,290.715 C696.702,294.823 690.040,294.823 685.931,290.715 C681.823,286.608 681.823,279.948 685.931,275.841 L958.421,3.407 C962.530,-0.700 969.192,-0.700 973.301,3.407 Z"/>
<path fill-rule="evenodd"  opacity="0.15" fill="rgb(12, 76, 84)"
 d="M342.301,505.408 C346.410,509.515 346.410,516.175 342.301,520.282 L69.811,792.715 C65.702,796.822 59.040,796.822 54.931,792.715 C50.823,788.608 50.823,781.948 54.931,777.841 L327.421,505.408 C331.530,501.300 338.192,501.300 342.301,505.408 Z"/>
<path fill-rule="evenodd"  opacity="0.15" fill="rgb(12, 76, 84)"
 d="M1273.301,294.407 C1277.410,298.515 1277.410,305.175 1273.301,309.282 L1242.811,339.715 C1238.702,343.823 1232.040,343.823 1227.931,339.715 C1223.823,335.607 1223.823,328.948 1227.931,324.841 L1258.421,294.407 C1262.530,290.300 1269.192,290.300 1273.301,294.407 Z"/>
<path fill-rule="evenodd"  opacity="0.15" fill="rgb(12, 76, 84)"
 d="M369.300,989.407 C373.410,993.515 373.410,1000.175 369.300,1004.282 L163.811,1209.715 C159.702,1213.823 153.040,1213.823 148.931,1209.715 C144.823,1205.607 144.823,1198.948 148.931,1194.841 L354.421,989.407 C358.530,985.300 365.192,985.300 369.300,989.407 Z"/>
<path fill-rule="evenodd"  opacity="0.15" fill="rgb(12, 76, 84)"
 d="M1414.301,362.408 C1418.410,366.515 1418.410,373.175 1414.301,377.282 L1208.811,582.715 C1204.702,586.823 1198.040,586.823 1193.931,582.715 C1189.823,578.608 1189.823,571.948 1193.931,567.841 L1399.421,362.408 C1403.530,358.300 1410.192,358.300 1414.301,362.408 Z"/>
<path fill-rule="evenodd"  fill="rgb(12, 76, 84)"
 d="M1485.301,928.407 C1489.409,932.515 1489.409,939.174 1485.301,943.282 L1369.811,1058.715 C1365.702,1062.822 1359.040,1062.822 1354.931,1058.715 C1350.823,1054.607 1350.823,1047.948 1354.931,1043.840 L1470.421,928.407 C1474.530,924.300 1481.192,924.300 1485.301,928.407 Z"/>
<path fill-rule="evenodd"  fill="rgb(12, 76, 84)"
 d="M1048.301,336.407 C1052.410,340.515 1052.410,347.174 1048.301,351.282 L876.811,522.715 C872.702,526.823 866.041,526.823 861.932,522.715 C857.823,518.607 857.823,511.948 861.932,507.841 L1033.421,336.407 C1037.530,332.300 1044.192,332.300 1048.301,336.407 Z"/>
<path fill-rule="evenodd"  opacity="0.15" fill="rgb(12, 76, 84)"
 d="M717.882,328.050 C722.007,332.140 722.007,338.771 717.882,342.860 L426.040,619.916 C421.915,624.006 415.226,624.006 411.100,619.916 C406.975,615.827 406.975,609.196 411.100,605.107 L702.941,328.050 C707.068,323.961 713.756,323.961 717.882,328.050 Z"/>
</g>
</svg>